<svg width="125" height="109" viewBox="0 0 125 109" fill="none" xmlns="http://www.w3.org/2000/svg">
<g clip-path="url(#clip0_1_298)">
<path d="M6.03156 37.1437L0.00436964 33.7614C-0.0769305 30.1426 0.729599 26.5588 2.35392 23.321C3.74352 29.6051 11.0565 32.5948 14.4306 38.0815C15.4698 39.8008 16.1074 41.7311 16.296 43.7292C16.4847 45.7274 16.2197 47.7423 15.5206 49.6245L15.917 54.4967C12.8019 53.5671 9.92616 51.9757 7.48783 49.8321C5.04951 47.6885 3.10658 45.0437 1.79292 42.08C1.0725 40.41 0.566003 38.6563 0.285399 36.8603C3.09553 37.1582 6.03156 37.1437 6.03156 37.1437Z" fill="#F2F2F2"/>
<path d="M114.38 98.6778L114.565 94.5374C116.492 93.5113 118.641 92.9693 120.825 92.9585C117.819 95.4077 118.194 100.129 116.156 103.422C115.512 104.445 114.646 105.31 113.621 105.953C112.596 106.597 111.439 107.002 110.236 107.139L107.72 108.674C107.375 106.757 107.451 104.787 107.943 102.902C108.435 101.016 109.332 99.2593 110.571 97.7523C111.275 96.9137 112.082 96.1668 112.973 95.5291C113.575 97.1122 114.38 98.6778 114.38 98.6778Z" fill="#E6E6E6"/>
<path d="M107.897 106.543L105.619 106.543L104.535 97.7878L107.898 97.788L107.897 106.543Z" fill="#FFB6B6"/>
<path d="M108.478 108.744L101.132 108.744V108.651C101.132 107.896 101.434 107.171 101.97 106.637C102.506 106.103 103.233 105.802 103.992 105.802H103.992L105.334 104.788L107.837 105.803L108.479 105.803L108.478 108.744Z" fill="#2F2E41"/>
<path d="M97.3128 106.543L95.0346 106.543L93.9508 97.7878L97.3134 97.788L97.3128 106.543Z" fill="#FFB6B6"/>
<path d="M97.8939 108.744L90.5479 108.744V108.651C90.5479 107.896 90.8492 107.171 91.3854 106.637C91.9216 106.103 92.6488 105.802 93.4071 105.802H93.4073L94.7492 104.788L97.2528 105.803L97.8941 105.803L97.8939 108.744Z" fill="#2F2E41"/>
<path d="M96.3268 58.6768L111.146 59.0459C113.96 60.5689 114.003 63.8654 113.081 67.7792C113.081 67.7792 113.392 70.1055 112.769 70.7258C112.147 71.3462 111.835 71.3462 112.147 72.4317C112.458 73.5173 110.813 75.2904 111.013 75.4895C111.213 75.6885 111.68 76.7741 111.68 76.7741L110.123 85.6139C110.123 85.6139 109.034 100.967 108.722 101.277C108.411 101.588 108.1 101.277 108.411 102.053C108.722 102.828 109.034 102.518 108.722 102.828C108.447 103.124 108.187 103.435 107.944 103.759H104.181C104.181 103.759 103.897 102.208 103.897 102.053C103.897 101.898 103.586 100.967 103.586 100.812C103.586 100.657 103.861 100.383 103.861 100.383C103.956 100.068 104.02 99.7439 104.053 99.4164C104.053 99.1062 104.987 87.1647 104.987 87.1647L103.119 71.6563L98.6049 86.8546C98.6049 86.8546 98.6049 100.192 98.2936 100.502C97.9823 100.812 97.9823 100.657 98.1379 101.277C98.2936 101.898 98.9162 101.743 98.4492 102.208C97.9823 102.673 97.8266 101.898 97.9823 102.673L98.1379 103.449L93.4683 103.515C93.4683 103.515 92.8457 102.208 93.157 101.743C93.4683 101.277 93.4496 101.404 93.0699 100.643C92.6901 99.8816 92.5344 99.7265 92.6901 99.5714C92.8457 99.4164 92.8457 98.5915 92.8457 98.5915L93.624 83.7529C93.624 83.7529 93.7796 68.0894 93.7796 67.6241C93.7914 67.3847 93.7471 67.1459 93.6503 66.9265V66.2949L94.2466 64.0572L96.3268 58.6768Z" fill="#69687F"/>
<path d="M105.229 27.976C107.772 27.976 109.833 25.9221 109.833 23.3885C109.833 20.8549 107.772 18.801 105.229 18.801C102.686 18.801 100.624 20.8549 100.624 23.3885C100.624 25.9221 102.686 27.976 105.229 27.976Z" fill="#FFB6B6"/>
<path d="M102.927 31.008C101.935 31.5955 101.341 32.6751 101.001 33.7736C100.37 35.8074 99.9904 37.9102 99.8702 40.0355L99.5104 46.3982L95.0547 59.9462C98.9163 63.2018 113.432 60.6861 113.432 60.6861C113.432 60.6861 113.877 60.5381 113.432 60.0942C112.986 59.6502 112.552 60.0436 112.998 59.5996C113.444 59.1557 113.136 59.6502 112.988 59.2063C112.839 58.7623 112.988 59.0583 113.136 58.9103C113.285 58.7623 111.987 57.4305 111.987 57.4305L113.175 49.6538L114.66 33.9676C112.878 31.7479 109.293 30.4393 109.293 30.4393L108.367 28.7783L103.736 29.1474L102.927 31.008Z" fill="#130160"/>
<path d="M102.295 20.6963C102.473 20.6976 102.65 20.7208 102.823 20.7653C103.163 20.8467 103.508 20.9044 103.856 20.9379C104.922 21.0379 105.924 21.4908 106.701 22.2243C107.478 22.9579 107.986 23.9298 108.144 24.9849C108.412 24.7525 109.021 24.325 109.52 24.7223C109.527 24.7286 109.532 24.7318 109.549 24.7235C109.881 24.5669 110.469 22.639 110.487 20.9415C110.496 20.0405 110.354 18.89 109.622 18.5256L109.584 18.5064L109.574 18.4647C109.525 18.262 108.979 17.9161 108.03 17.6468C106.306 17.1575 103.736 16.2042 102.288 17.6071C102.179 18.08 101.822 19.0921 101.462 19.2068C101.064 19.3338 100.72 19.4434 100.665 19.9305C100.62 20.6238 100.623 21.3194 100.675 22.0122C100.81 21.5883 101.075 21.2172 101.433 20.9513C101.688 20.7806 101.988 20.6916 102.295 20.6963Z" fill="#2F2E41"/>
<path d="M93.725 46.044L101.246 41.2448L97.458 36.2275L93.7175 40.812L82.0627 41.5242C81.7562 41.2223 81.3681 41.0157 80.9458 40.9298C80.5234 40.8438 80.0852 40.8822 79.6843 41.0401C79.2835 41.198 78.9375 41.4688 78.6884 41.8193C78.4393 42.1698 78.298 42.5849 78.2816 43.0141C78.2653 43.4432 78.3746 43.8678 78.5962 44.2362C78.8179 44.6045 79.1424 44.9006 79.53 45.0884C79.9176 45.2762 80.3518 45.3475 80.7794 45.2937C81.207 45.2399 81.6097 45.0633 81.9384 44.7854L93.725 46.044Z" fill="#FFB6B6"/>
<path d="M108.227 34.5462C108.663 37.1783 100.42 42.2046 100.42 42.2046C100.42 41.5868 95.4999 46.2507 95.2778 45.7383C94.6466 44.2821 94.2029 40.833 93.3209 40.2809C92.8165 39.9652 96.3586 36.9993 96.3586 36.9993C96.3586 36.9993 98.2127 35.1383 100.646 32.7908C101.321 32.1145 102.158 31.6194 103.077 31.3517C103.996 31.084 104.968 31.0523 105.903 31.2597C105.903 31.2597 107.79 31.9141 108.227 34.5462Z" fill="#130160"/>
<path d="M123.729 47.3037L118.754 39.9133L113.8 43.793L118.479 47.422L119.441 59.0165C119.144 59.3283 118.945 59.7192 118.868 60.1417C118.791 60.5642 118.838 61 119.005 61.3959C119.172 61.7919 119.451 62.1308 119.808 62.3715C120.165 62.6122 120.585 62.7442 121.016 62.7514C121.447 62.7586 121.87 62.6407 122.235 62.4121C122.6 62.1835 122.891 61.8541 123.071 61.4639C123.251 61.0738 123.313 60.6399 123.25 60.215C123.187 59.7902 123.002 59.3928 122.716 59.0713L123.729 47.3037Z" fill="#FFB6B6"/>
<path d="M111.885 33.1015C114.517 32.6109 119.735 40.7159 119.735 40.7159C119.115 40.7291 123.899 45.5313 123.39 45.7634C121.942 46.423 118.49 46.9381 117.955 47.8283C117.649 48.3374 114.598 44.8718 114.598 44.8718C114.598 44.8718 112.691 43.0643 110.284 40.6903C109.591 40.0317 109.076 39.2091 108.788 38.2992C108.5 37.3892 108.448 36.4213 108.636 35.4858C108.636 35.4858 109.253 33.592 111.885 33.1015Z" fill="#130160"/>
<path d="M125 108.78C125 108.809 124.994 108.838 124.983 108.865C124.972 108.891 124.956 108.916 124.936 108.936C124.915 108.956 124.891 108.973 124.864 108.984C124.837 108.995 124.808 109 124.78 109H72.86C72.8015 109 72.7454 108.977 72.7041 108.936C72.6627 108.895 72.6395 108.839 72.6395 108.78C72.6395 108.722 72.6627 108.666 72.7041 108.625C72.7454 108.584 72.8015 108.561 72.86 108.561H124.78C124.808 108.561 124.837 108.566 124.864 108.577C124.891 108.588 124.915 108.605 124.936 108.625C124.956 108.645 124.972 108.67 124.983 108.696C124.994 108.723 125 108.752 125 108.78Z" fill="#130160"/>
<path d="M76.9026 42.2256H13.8912C12.9067 42.2267 11.9629 42.6168 11.2668 43.3104C10.5707 44.004 10.1791 44.9443 10.178 45.9252V85.0125C10.1791 85.9934 10.5707 86.9337 11.2668 87.6273C11.9629 88.3209 12.9067 88.711 13.8912 88.7121H76.9025C77.887 88.711 78.8308 88.3209 79.5269 87.6273C80.2231 86.9338 80.6147 85.9934 80.6158 85.0125V45.9252C80.6147 44.9443 80.2231 44.004 79.527 43.3104C78.8309 42.6168 77.887 42.2267 76.9026 42.2256Z" fill="#FCA34D"/>
<path d="M76.9026 42.2256H13.8912C12.9067 42.2267 11.9629 42.6168 11.2668 43.3104C10.5707 44.004 10.1791 44.9443 10.178 45.9252V85.0125C10.1791 85.9934 10.5707 86.9337 11.2668 87.6273C11.9629 88.3209 12.9067 88.711 13.8912 88.7121H76.9025C77.887 88.711 78.8308 88.3209 79.5269 87.6273C80.2231 86.9338 80.6147 85.9934 80.6158 85.0125V45.9252C80.6147 44.9443 80.2231 44.004 79.527 43.3104C78.8309 42.6168 77.887 42.2267 76.9026 42.2256ZM78.1211 70.3025C78.1061 74.2818 76.5263 78.0967 73.7206 80.9289C70.915 83.761 67.107 85.3848 63.1137 85.4517C56.72 85.5347 66.6512 85.567 58.94 85.567C41.307 85.567 22.9206 85.3991 16.0605 85.2903C15.1579 85.2717 14.2983 84.9023 13.6654 84.261C13.0324 83.6197 12.6761 82.7572 12.6726 81.8577V45.9281C12.673 45.606 12.8013 45.2972 13.0296 45.0691C13.258 44.8411 13.5676 44.7124 13.8909 44.7113H76.9C77.2232 44.7116 77.5332 44.8395 77.762 45.0669C77.9908 45.2944 78.12 45.6028 78.1211 45.9248V70.3025Z" fill="#130160"/>
<path d="M69.1459 19.7178H21.1378C20.713 19.7184 20.2988 19.8496 19.9517 20.0935C19.6045 20.3374 19.3414 20.6821 19.1982 21.0805L11.7837 41.8064C11.673 42.1158 11.6385 42.4471 11.6831 42.7725C11.7276 43.0979 11.8499 43.4079 12.0397 43.6764C12.2295 43.9449 12.4812 44.1641 12.7736 44.3156C13.0661 44.4671 13.3908 44.5464 13.7204 44.5469L78.1071 44.6607H78.11C78.4507 44.6607 78.7861 44.5764 79.0861 44.4155C79.3862 44.2545 79.6414 44.0219 79.829 43.7385C80.0165 43.455 80.1306 43.1297 80.1609 42.7915C80.1912 42.4534 80.1368 42.113 80.0026 41.8009L79.8903 41.8488L80.0026 41.8009L71.0385 20.9612C70.88 20.592 70.6162 20.2773 70.2797 20.0562C69.9432 19.8351 69.5489 19.7175 69.1459 19.7178Z" fill="#818CF8"/>
<path d="M80.1693 42.251C80.1691 42.5289 80.1124 42.8039 80.0026 43.0594L71.0391 59.1012C70.8795 59.4696 70.6152 59.7835 70.2789 60.0042C69.9425 60.2249 69.5487 60.3428 69.146 60.3433H21.1386C20.7137 60.3429 20.2992 60.2118 19.9518 59.9681C19.6044 59.7243 19.3409 59.3797 19.1973 58.9812L11.7842 43.0538C11.6934 42.8001 11.6536 42.531 11.6671 42.2619C11.6807 41.9928 11.7474 41.7291 11.8633 41.4857C11.9793 41.2423 12.1422 41.0241 12.3429 40.8434C12.5435 40.6628 12.7779 40.5234 13.0327 40.4331C13.2531 40.3538 13.4856 40.3132 13.7199 40.3132L21.585 40.2984L24.7951 40.2929L67.0361 40.219L70.2481 40.2135L78.1076 40.1987H78.1095C78.6558 40.1988 79.1796 40.4151 79.5659 40.7999C79.9522 41.1848 80.1692 41.7067 80.1693 42.251Z" fill="#818CF8"/>
<path d="M18.615 71.5454C19.5669 71.5454 32.6398 72.3414 32.6398 73.29C32.6398 74.2385 19.5669 74.9803 18.615 74.9803C18.1578 74.9803 17.7194 74.7993 17.3961 74.4772C17.0728 74.1552 16.8912 73.7183 16.8912 73.2628C16.8912 72.8073 17.0728 72.3705 17.3961 72.0484C17.7194 71.7264 18.1578 71.5454 18.615 71.5454Z" fill="#130160"/>
<path d="M66.1562 7.10938H25.6768C24.592 7.11062 23.5519 7.54055 22.7848 8.30485C22.0177 9.06914 21.5862 10.1054 21.585 11.1863V60.3434H69.1459C69.5365 60.3447 69.9191 60.2338 70.2481 60.0242V11.1863C70.2468 10.1054 69.8153 9.06915 69.0482 8.30485C68.2811 7.54056 67.2411 7.11063 66.1562 7.10938Z" fill="#E6E6E6"/>
<path d="M50.7058 10.4148H28.5221C27.5343 10.4158 26.5871 10.807 25.8885 11.5028C25.1898 12.1986 24.7966 13.1421 24.7952 14.1263V60.3434H67.0361V26.6855C67.0312 22.3718 65.309 18.2361 62.2476 15.1859C59.1862 12.1356 55.0354 10.4198 50.7058 10.4148Z" fill="white"/>
<path d="M59.8398 56.2388H31.9915C31.7508 56.2388 31.5199 56.334 31.3497 56.5036C31.1795 56.6732 31.0839 56.9033 31.0839 57.1431C31.0839 57.383 31.1795 57.613 31.3497 57.7826C31.5199 57.9522 31.7508 58.0474 31.9915 58.0474H59.8398C60.0805 58.0474 60.3113 57.9522 60.4816 57.7826C60.6518 57.613 60.7474 57.383 60.7474 57.1431C60.7474 56.9033 60.6518 56.6732 60.4816 56.5036C60.3113 56.334 60.0805 56.2388 59.8398 56.2388Z" fill="#E4E4E4"/>
<path d="M59.8397 52.6621H31.9915C31.7505 52.6621 31.5194 52.7575 31.349 52.9273C31.1786 53.097 31.0829 53.3273 31.0829 53.5674C31.0829 53.8075 31.1786 54.0377 31.349 54.2075C31.5194 54.3773 31.7505 54.4726 31.9915 54.4726H59.8397C60.0807 54.4726 60.3118 54.3773 60.4822 54.2075C60.6526 54.0377 60.7483 53.8075 60.7483 53.5674C60.7483 53.3273 60.6526 53.097 60.4822 52.9273C60.3118 52.7575 60.0807 52.6621 59.8397 52.6621Z" fill="#E4E4E4"/>
<path d="M44.0633 49.0872H31.9915C31.7508 49.0872 31.5199 49.1824 31.3497 49.352C31.1795 49.5216 31.0839 49.7516 31.0839 49.9915C31.0839 50.2313 31.1795 50.4614 31.3497 50.631C31.5199 50.8005 31.7508 50.8958 31.9915 50.8958H44.0633C44.304 50.8958 44.5349 50.8005 44.7051 50.631C44.8753 50.4614 44.9709 50.2313 44.9709 49.9915C44.9709 49.7516 44.8753 49.5216 44.7051 49.352C44.5349 49.1824 44.304 49.0872 44.0633 49.0872Z" fill="#E4E4E4"/>
<path d="M59.8397 41.5977H31.9915C31.7505 41.5977 31.5194 41.693 31.349 41.8628C31.1786 42.0326 31.0829 42.2628 31.0829 42.5029C31.0829 42.743 31.1786 42.9733 31.349 43.143C31.5194 43.3128 31.7505 43.4082 31.9915 43.4082H59.8397C60.0807 43.4082 60.3118 43.3128 60.4822 43.143C60.6526 42.9733 60.7483 42.743 60.7483 42.5029C60.7483 42.2628 60.6526 42.0326 60.4822 41.8628C60.3118 41.693 60.0807 41.5977 59.8397 41.5977Z" fill="#E4E4E4"/>
<path d="M59.8398 38.0229H31.9915C31.7508 38.0229 31.5199 38.1182 31.3497 38.2878C31.1795 38.4574 31.0839 38.6874 31.0839 38.9273C31.0839 39.1671 31.1795 39.3971 31.3497 39.5667C31.5199 39.7363 31.7508 39.8316 31.9915 39.8316H59.8398C60.0805 39.8316 60.3113 39.7363 60.4816 39.5667C60.6518 39.3971 60.7474 39.1671 60.7474 38.9273C60.7474 38.6874 60.6518 38.4574 60.4816 38.2878C60.3113 38.1182 60.0805 38.0229 59.8398 38.0229Z" fill="#E4E4E4"/>
<path d="M44.0632 34.446H31.9915C31.7505 34.446 31.5194 34.5414 31.349 34.7112C31.1786 34.881 31.0829 35.1112 31.0829 35.3513C31.0829 35.5914 31.1786 35.8216 31.349 35.9914C31.5194 36.1612 31.7505 36.2566 31.9915 36.2566H44.0632C44.3042 36.2566 44.5353 36.1612 44.7057 35.9914C44.8761 35.8216 44.9718 35.5914 44.9718 35.3513C44.9718 35.1112 44.8761 34.881 44.7057 34.7112C44.5353 34.5414 44.3042 34.446 44.0632 34.446Z" fill="#E4E4E4"/>
<path d="M59.8397 26.9568H31.9915C31.7505 26.9568 31.5194 27.0522 31.349 27.2219C31.1786 27.3917 31.0829 27.622 31.0829 27.862C31.0829 28.1021 31.1786 28.3324 31.349 28.5022C31.5194 28.6719 31.7505 28.7673 31.9915 28.7673H59.8397C60.0807 28.7673 60.3118 28.6719 60.4822 28.5022C60.6526 28.3324 60.7483 28.1021 60.7483 27.862C60.7483 27.622 60.6526 27.3917 60.4822 27.2219C60.3118 27.0522 60.0807 26.9568 59.8397 26.9568Z" fill="#130160"/>
<path d="M59.8397 23.3818H31.9915C31.7505 23.3818 31.5194 23.4772 31.349 23.647C31.1786 23.8168 31.0829 24.047 31.0829 24.2871C31.0829 24.5272 31.1786 24.7574 31.349 24.9272C31.5194 25.097 31.7505 25.1924 31.9915 25.1924H59.8397C60.0807 25.1924 60.3118 25.097 60.4822 24.9272C60.6526 24.7574 60.7483 24.5272 60.7483 24.2871C60.7483 24.047 60.6526 23.8168 60.4822 23.647C60.3118 23.4772 60.0807 23.3818 59.8397 23.3818Z" fill="#130160"/>
<path d="M44.0632 19.8052H31.9915C31.7505 19.8052 31.5194 19.9006 31.349 20.0703C31.1786 20.2401 31.0829 20.4703 31.0829 20.7104C31.0829 20.9505 31.1786 21.1808 31.349 21.3506C31.5194 21.5203 31.7505 21.6157 31.9915 21.6157H44.0632C44.3042 21.6157 44.5353 21.5203 44.7057 21.3506C44.8761 21.1808 44.9718 20.9505 44.9718 20.7104C44.9718 20.4703 44.8761 20.2401 44.7057 20.0703C44.5353 19.9006 44.3042 19.8052 44.0632 19.8052Z" fill="#130160"/>
<path d="M68.7305 14.0865C72.6346 14.0865 75.7996 10.9332 75.7996 7.04328C75.7996 3.15338 72.6346 0 68.7305 0C64.8263 0 61.6614 3.15338 61.6614 7.04328C61.6614 10.9332 64.8263 14.0865 68.7305 14.0865Z" fill="#FCA34D"/>
<path d="M67.7662 10.709C67.6441 10.709 67.5237 10.6806 67.4145 10.6262C67.3053 10.5718 67.2104 10.4928 67.1372 10.3955L65.2086 7.83345C65.1463 7.75117 65.1009 7.65745 65.075 7.55766C65.0492 7.45787 65.0433 7.35397 65.0578 7.25192C65.0723 7.14988 65.1069 7.05168 65.1595 6.96296C65.2121 6.87424 65.2818 6.79674 65.3646 6.73491C65.4474 6.67307 65.5415 6.62811 65.6418 6.6026C65.742 6.5771 65.8463 6.57154 65.9487 6.58626C66.0511 6.60098 66.1495 6.63568 66.2384 6.68838C66.3273 6.74107 66.4049 6.81073 66.4667 6.89335L67.7285 8.56939L70.9691 3.72633C71.0847 3.55343 71.2646 3.43341 71.4691 3.39266C71.6736 3.35191 71.886 3.39377 72.0595 3.50903C72.2331 3.62429 72.3535 3.80352 72.3944 4.00727C72.4353 4.21103 72.3933 4.42263 72.2776 4.59552L68.4205 10.3601C68.3507 10.4643 68.2569 10.5504 68.1468 10.611C68.0368 10.6717 67.9138 10.7052 67.788 10.7087C67.7807 10.7088 67.7735 10.709 67.7662 10.709Z" fill="white"/>
</g>
<defs>
<clipPath id="clip0_1_298">
<rect width="125" height="109" fill="white"/>
</clipPath>
</defs>
</svg>
