<svg width="24" height="27" viewBox="0 0 24 27" fill="none" xmlns="http://www.w3.org/2000/svg">
<path d="M21.75 12.0001L21.75 11.2501L20.25 11.2501L20.25 12.0001L21.75 12.0001ZM20.25 17.0001C20.25 17.4143 20.5858 17.7501 21 17.7501C21.4142 17.7501 21.75 17.4143 21.75 17.0001L20.25 17.0001ZM20.25 12.0001L20.25 17.0001L21.75 17.0001L21.75 12.0001L20.25 12.0001Z" fill="#FF9228"/>
<path d="M6 13.0001V20.2707V20.2707C9.43862 23.2677 14.5614 23.2677 18 20.2707V20.2707V13.0001" stroke="#FF9228" stroke-width="1.5"/>
<path d="M9.61203 7.9912C11.1119 7.22518 12.8881 7.22518 14.388 7.9912L21.3553 11.5497L14.388 15.1082C12.8881 15.8743 11.1119 15.8743 9.61203 15.1082L2.6447 11.5497L9.61203 7.9912Z" stroke="#FF9228" stroke-width="1.5"/>
</svg>
