<svg width="24" height="32" viewBox="0 0 24 32" fill="none" xmlns="http://www.w3.org/2000/svg">
<path fill-rule="evenodd" clip-rule="evenodd" d="M3.668 14.12C2.608 16.266 2 18.276 2 20C2 22.6522 3.05357 25.1957 4.92893 27.0711C6.8043 28.9464 9.34784 30 12 30C14.6522 30 17.1957 28.9464 19.0711 27.0711C20.9464 25.1957 22 22.6522 22 20C22 18.276 21.39 16.266 20.332 14.12C19.284 11.996 17.864 9.88 16.412 7.98C15.0346 6.18874 13.5618 4.47293 12 2.84L11.584 3.28C10.176 4.78046 8.84243 6.349 7.588 7.98C6.136 9.88 4.716 11.996 3.668 14.12ZM12 1.90735e-06C12 1.90735e-06 0 11.372 0 20C0 23.1826 1.26428 26.2348 3.51472 28.4853C5.76516 30.7357 8.8174 32 12 32C15.1826 32 18.2348 30.7357 20.4853 28.4853C22.7357 26.2348 24 23.1826 24 20C24 11.372 12 1.90735e-06 12 1.90735e-06Z" fill="#FF9228"/>
<path fill-rule="evenodd" clip-rule="evenodd" d="M12 16C10.9391 16 9.92172 16.4214 9.17157 17.1716C8.42143 17.9217 8 18.9391 8 20C8 21.0609 8.42143 22.0783 9.17157 22.8284C9.92172 23.5786 10.9391 24 12 24C13.0609 24 14.0783 23.5786 14.8284 22.8284C15.5786 22.0783 16 21.0609 16 20C16 18.9391 15.5786 17.9217 14.8284 17.1716C14.0783 16.4214 13.0609 16 12 16ZM12 14C10.4087 14 8.88258 14.6321 7.75736 15.7574C6.63214 16.8826 6 18.4087 6 20C6 21.5913 6.63214 23.1174 7.75736 24.2426C8.88258 25.3679 10.4087 26 12 26C13.5913 26 15.1174 25.3679 16.2426 24.2426C17.3679 23.1174 18 21.5913 18 20C18 18.4087 17.3679 16.8826 16.2426 15.7574C15.1174 14.6321 13.5913 14 12 14Z" fill="#FF9228"/>
</svg>
