<svg width="119" height="94" viewBox="0 0 119 94" fill="none" xmlns="http://www.w3.org/2000/svg">
<rect x="13" y="6" width="83" height="82" rx="41" fill="#818CF8"/>
<path d="M38.3198 49.9465C39.4047 45.9317 43.5793 43.5204 47.6712 44.6076C51.7632 45.6949 54.1626 49.8529 53.0778 53.8677C51.9929 57.8826 47.8183 60.2939 43.7264 59.2066C39.6344 58.1194 37.235 53.9614 38.3198 49.9465Z" stroke="white" stroke-width="5"/>
<path d="M54.005 46.5529L76.5587 33.7323" stroke="white" stroke-width="5" stroke-linecap="round"/>
<path d="M72.6286 35.9824L75.1498 40.3125" stroke="white" stroke-width="5" stroke-linecap="round"/>
<path d="M65.205 40.2324L67.7261 44.5625" stroke="white" stroke-width="5" stroke-linecap="round"/>
<rect opacity="0.5" x="5" y="3" width="42" height="42" rx="21" fill="#4C407B"/>
<rect width="42" height="42" rx="21" fill="#FF9228"/>
<path d="M18.9199 23.2637V22.541C18.9199 22.0983 18.9818 21.7077 19.1055 21.3691C19.2292 21.0241 19.4277 20.6986 19.7012 20.3926C19.9746 20.0801 20.3359 19.7611 20.7852 19.4355C21.1888 19.1491 21.5111 18.8919 21.752 18.6641C21.9993 18.4362 22.1784 18.2116 22.2891 17.9902C22.4062 17.7624 22.4648 17.5052 22.4648 17.2188C22.4648 16.7956 22.3086 16.4733 21.9961 16.252C21.6836 16.0306 21.2474 15.9199 20.6875 15.9199C20.1276 15.9199 19.571 16.0078 19.0176 16.1836C18.4707 16.3594 17.9141 16.5905 17.3477 16.877L16.2832 14.7383C16.9342 14.3737 17.6406 14.0807 18.4023 13.8594C19.1641 13.6315 19.9974 13.5176 20.9023 13.5176C22.2956 13.5176 23.373 13.8529 24.1348 14.5234C24.903 15.1875 25.2871 16.0339 25.2871 17.0625C25.2871 17.6094 25.1992 18.0846 25.0234 18.4883C24.8542 18.8854 24.5938 19.2565 24.2422 19.6016C23.8971 19.9401 23.4642 20.2982 22.9434 20.6758C22.5527 20.9622 22.2533 21.2031 22.0449 21.3984C21.8366 21.5938 21.6934 21.7891 21.6152 21.9844C21.5436 22.1732 21.5078 22.4043 21.5078 22.6777V23.2637H18.9199ZM18.6074 26.6035C18.6074 25.9915 18.7734 25.5618 19.1055 25.3145C19.444 25.0671 19.8509 24.9434 20.3262 24.9434C20.7884 24.9434 21.1855 25.0671 21.5176 25.3145C21.8561 25.5618 22.0254 25.9915 22.0254 26.6035C22.0254 27.1895 21.8561 27.6126 21.5176 27.873C21.1855 28.1335 20.7884 28.2637 20.3262 28.2637C19.8509 28.2637 19.444 28.1335 19.1055 27.873C18.7734 27.6126 18.6074 27.1895 18.6074 26.6035Z" fill="white"/>
<path d="M108.225 82.8228L108.419 78.6075C110.445 77.5628 112.704 77.011 115 77C111.839 79.4935 112.234 84.3 110.092 87.6531C109.415 88.694 108.504 89.5746 107.427 90.2297C106.35 90.8848 105.133 91.2975 103.868 91.4374L101.223 93C100.86 91.0477 100.94 89.0426 101.458 87.123C101.975 85.2033 102.918 83.4148 104.221 81.8805C104.96 81.0268 105.809 80.2663 106.745 79.6171C107.379 81.2289 108.225 82.8228 108.225 82.8228Z" fill="#E6E6E6"/>
<path d="M102 91L99.2893 90.9998L98 82L102 82.0002L102 91Z" fill="#FFB6B6"/>
<path d="M102 94L95 93.9997V93.9061C95.0001 93.1422 95.2871 92.4095 95.7981 91.8693C96.309 91.3291 97.002 91.0256 97.7245 91.0256H97.7247L99.0033 90L101.389 91.0257L102 91.0258L102 94Z" fill="#2F2E41"/>
<path d="M90.9993 91L88.2893 90.9998L87 82L91 82.0002L90.9993 91Z" fill="#FFB6B6"/>
<path d="M90.9999 94L84 93.9997V93.9061C84.0001 93.1422 84.2871 92.4095 84.7981 91.8693C85.309 91.3291 86.002 91.0256 86.7245 91.0256H86.7247L88.0033 90L90.389 91.0257L91 91.0258L90.9999 94Z" fill="#2F2E41"/>
<path d="M89.875 43L105.409 43.3684C108.359 44.8887 108.404 48.1792 107.438 52.0859C107.438 52.0859 107.764 54.4079 107.111 55.0272C106.459 55.6464 106.132 55.6464 106.459 56.73C106.785 57.8136 105.061 59.5835 105.27 59.7821C105.48 59.9808 105.969 61.0644 105.969 61.0644L104.337 69.8882C104.337 69.8882 103.195 85.2136 102.869 85.5232C102.543 85.8328 102.216 85.5232 102.543 86.2972C102.869 87.0712 103.195 86.7616 102.869 87.0712C102.58 87.3669 102.308 87.6769 102.053 88H98.1082C98.1082 88 97.8107 86.452 97.8107 86.2972C97.8107 86.1424 97.4844 85.2136 97.4844 85.0588C97.4844 84.904 97.7728 84.6303 97.7728 84.6303C97.8725 84.3156 97.9398 83.9925 97.9739 83.6655C97.9739 83.3559 98.9529 71.4362 98.9529 71.4362L96.9949 55.956L92.2631 71.1266C92.2631 71.1266 92.2631 84.4395 91.9367 84.7491C91.6104 85.0588 91.6104 84.904 91.7736 85.5232C91.9367 86.1424 92.5894 85.9876 92.0999 86.452C91.6104 86.9164 91.4472 86.1424 91.6104 86.9164L91.7736 87.6904L86.8785 87.7568C86.8785 87.7568 86.2259 86.452 86.5522 85.9876C86.8785 85.5232 86.859 85.6499 86.4608 84.8899C86.0627 84.1299 85.8995 83.9751 86.0627 83.8203C86.2259 83.6655 86.2259 82.8422 86.2259 82.8422L87.0417 68.0305C87.0417 68.0305 87.2049 52.3955 87.2049 51.9311C87.2172 51.6921 87.1708 51.4537 87.0693 51.2347V50.6043L87.6944 48.3707L89.875 43Z" fill="#69687F"/>
<path d="M99 11C101.761 11 104 8.98528 104 6.5C104 4.01472 101.761 2 99 2C96.2386 2 94 4.01472 94 6.5C94 8.98528 96.2386 11 99 11Z" fill="#FFB6B6"/>
<path d="M97.0303 14.3088C96.0184 14.9172 95.4131 16.035 95.0656 17.1725C94.4223 19.2785 94.0351 21.4558 93.9125 23.6565L93.5455 30.245L89 44.2736C92.9394 47.6447 107.747 45.0398 107.747 45.0398C107.747 45.0398 108.202 44.8865 107.747 44.4268C107.292 43.9671 106.85 44.3744 107.304 43.9147C107.759 43.455 107.446 43.9671 107.294 43.5074C107.143 43.0477 107.294 43.3542 107.446 43.201C107.597 43.0477 106.273 41.6686 106.273 41.6686L107.485 33.6161L109 17.3734C107.182 15.0749 103.525 13.72 103.525 13.72L102.58 12L97.8563 12.3822L97.0303 14.3088Z" fill="#130160"/>
<path d="M95.6862 3.77024C95.867 3.77161 96.0469 3.79447 96.2219 3.83832C96.567 3.91865 96.9175 3.97555 97.2708 4.00861C98.3525 4.10715 99.369 4.55385 100.158 5.27736C100.947 6.00086 101.462 6.95944 101.622 8C101.894 7.77078 102.512 7.34914 103.018 7.74101C103.026 7.74723 103.03 7.75043 103.048 7.74225C103.384 7.58778 103.981 5.6863 104 4.01208C104.009 3.12346 103.865 1.98874 103.122 1.6294L103.083 1.61047L103.073 1.56932C103.023 1.36943 102.469 1.02822 101.507 0.762653C99.7566 0.280038 97.1481 -0.660105 95.6793 0.723479C95.5681 1.18992 95.2065 2.1881 94.8411 2.30124C94.4366 2.42647 94.0872 2.53455 94.0322 3.01503C93.9862 3.69879 93.9895 4.38483 94.0422 5.06814C94.1792 4.65001 94.4483 4.28405 94.8115 4.02177C95.0697 3.85344 95.3749 3.76567 95.6862 3.77024Z" fill="#2F2E41"/>
<path d="M87.1403 30L95 25.1111L91.0413 20L87.1324 24.6702L74.953 25.3957C74.6326 25.0881 74.2271 24.8777 73.7857 24.7902C73.3444 24.7026 72.8864 24.7417 72.4675 24.9026C72.0486 25.0634 71.687 25.3392 71.4267 25.6963C71.1665 26.0534 71.0188 26.4763 71.0017 26.9134C70.9846 27.3506 71.0988 27.7832 71.3305 28.1584C71.5621 28.5336 71.9011 28.8352 72.3062 29.0265C72.7113 29.2178 73.165 29.2905 73.6119 29.2357C74.0588 29.1809 74.4796 29.001 74.823 28.7179L87.1403 30Z" fill="#FFB6B6"/>
<path d="M101.983 18.2692C102.421 20.7839 94.1617 25.5861 94.1617 25.5861C94.1616 24.9958 89.2323 29.4519 89.0098 28.9623C88.3775 27.571 87.9329 24.2757 87.0493 23.7482C86.5439 23.4466 90.0927 20.6129 90.0927 20.6129C90.0927 20.6129 91.9503 18.8348 94.388 16.592C95.0648 15.9458 95.9026 15.4728 96.8236 15.217C97.7445 14.9613 98.7186 14.931 99.6552 15.1292C99.6552 15.1292 101.546 15.7544 101.983 18.2692Z" fill="#130160"/>
<path d="M118 30.7662L112.99 23L108 27.077L112.713 30.8906L113.681 43.0748C113.382 43.4024 113.182 43.8133 113.104 44.2573C113.026 44.7013 113.074 45.1592 113.243 45.5753C113.411 45.9913 113.692 46.3475 114.051 46.6005C114.411 46.8534 114.833 46.9921 115.267 46.9997C115.701 47.0072 116.128 46.8834 116.496 46.6431C116.863 46.4029 117.155 46.0567 117.337 45.6467C117.518 45.2368 117.581 44.7808 117.518 44.3343C117.454 43.8879 117.267 43.4703 116.98 43.1324L118 30.7662Z" fill="#FFB6B6"/>
<path d="M105.607 17.0217C108.433 16.5245 114.035 24.7394 114.035 24.7394C113.37 24.7528 118.506 29.6201 117.959 29.8553C116.405 30.5239 112.699 31.0459 112.124 31.9482C111.795 32.4643 108.52 28.9517 108.52 28.9517C108.52 28.9517 106.472 27.1196 103.888 24.7134C103.144 24.0459 102.592 23.2122 102.282 22.2899C101.973 21.3675 101.917 20.3866 102.119 19.4383C102.119 19.4383 102.781 17.5189 105.607 17.0217Z" fill="#130160"/>
<path d="M119 93.5C119 93.5657 118.994 93.6308 118.983 93.6916C118.972 93.7523 118.956 93.8075 118.935 93.854C118.914 93.9005 118.889 93.9373 118.862 93.9624C118.835 93.9874 118.806 94.0002 118.777 94H66.2231C66.1639 94 66.1072 93.9473 66.0653 93.8536C66.0235 93.7598 66 93.6326 66 93.5C66 93.3674 66.0235 93.2402 66.0653 93.1465C66.1072 93.0527 66.1639 93 66.2231 93H118.777C118.806 92.9998 118.835 93.0126 118.862 93.0377C118.889 93.0627 118.914 93.0996 118.935 93.146C118.956 93.1925 118.972 93.2477 118.983 93.3084C118.994 93.3692 119 93.4343 119 93.5Z" fill="#130160"/>
</svg>
