<svg width="311" height="301" viewBox="0 0 311 301" fill="none" xmlns="http://www.w3.org/2000/svg">
<path fill-rule="evenodd" clip-rule="evenodd" d="M132.364 23.9829C173.359 25.5244 214.183 31.6123 245.836 57.5902C280.813 86.2961 312.608 125.448 310.937 170.541C309.298 214.769 273.682 249.371 237.763 275.456C207.447 297.472 169.76 303.337 132.364 300.225C98.4629 297.403 65.2333 285.091 43.2309 259.264C22.6896 235.153 26.8152 201.772 21.8832 170.541C15.2666 128.643 -15.5913 82.6454 9.98159 48.7215C35.954 14.2678 89.1208 22.3568 132.364 23.9829Z" fill="#818CF8"/>
<path d="M192.161 70.3943H190.856V34.6688C190.856 31.9534 190.322 29.2646 189.283 26.7559C188.244 24.2472 186.721 21.9677 184.801 20.0475C182.881 18.1274 180.601 16.6042 178.093 15.565C175.584 14.5257 172.895 13.9908 170.18 13.9907H94.4902C89.0063 13.9907 83.747 16.1692 79.8693 20.0469C75.9916 23.9246 73.8131 29.1839 73.8131 34.6678V230.662C73.8131 236.146 75.9916 241.405 79.8693 245.283C83.747 249.161 89.0063 251.339 94.4902 251.339H170.18C175.664 251.339 180.923 249.161 184.801 245.283C188.679 241.405 190.857 236.146 190.857 230.662V95.8244H192.162L192.161 70.3943Z" fill="#3F3D56"/>
<path d="M186.456 34.8129V230.518C186.456 234.613 184.829 238.541 181.933 241.437C179.037 244.333 175.109 245.96 171.014 245.96H94.9613C90.8659 245.96 86.9382 244.333 84.0423 241.437C81.1464 238.541 79.5195 234.613 79.5194 230.518V34.8129C79.5198 30.7178 81.1468 26.7904 84.0426 23.8948C86.9384 20.9991 90.8658 19.3723 94.961 19.3721H104.188C103.734 20.4861 103.561 21.6945 103.685 22.891C103.808 24.0874 104.223 25.2352 104.894 26.2334C105.565 27.2317 106.471 28.0497 107.533 28.6156C108.594 29.1815 109.778 29.4779 110.981 29.4787H154.342C155.545 29.4778 156.729 29.1814 157.791 28.6155C158.852 28.0496 159.758 27.2315 160.429 26.2333C161.1 25.2351 161.515 24.0873 161.638 22.8909C161.762 21.6945 161.589 20.4861 161.136 19.3721H171.014C175.109 19.3722 179.037 20.9991 181.933 23.895C184.829 26.7909 186.456 30.7186 186.456 34.814V34.8129Z" fill="white"/>
<path d="M90.1345 38.8883C90.5586 38.8883 90.9025 38.5445 90.9025 38.1203C90.9025 37.6962 90.5586 37.3523 90.1345 37.3523C89.7103 37.3523 89.3665 37.6962 89.3665 38.1203C89.3665 38.5445 89.7103 38.8883 90.1345 38.8883Z" fill="#3F3D56"/>
<path d="M92.9506 38.8883C93.3748 38.8883 93.7187 38.5445 93.7187 38.1203C93.7187 37.6962 93.3748 37.3523 92.9506 37.3523C92.5265 37.3523 92.1826 37.6962 92.1826 38.1203C92.1826 38.5445 92.5265 38.8883 92.9506 38.8883Z" fill="#3F3D56"/>
<path d="M95.767 38.8883C96.1912 38.8883 96.5351 38.5445 96.5351 38.1203C96.5351 37.6962 96.1912 37.3523 95.767 37.3523C95.3429 37.3523 94.999 37.6962 94.999 38.1203C94.999 38.5445 95.3429 38.8883 95.767 38.8883Z" fill="#3F3D56"/>
<path d="M176.162 36.0725H168.225V37.0965H176.162V36.0725Z" fill="#3F3D56"/>
<path d="M176.162 37.6084H168.225V38.6324H176.162V37.6084Z" fill="#3F3D56"/>
<path d="M176.162 39.1448H168.225V40.1688H176.162V39.1448Z" fill="#3F3D56"/>
<path d="M135.473 51.3645H96.5579C94.8251 51.3665 93.1636 52.1627 91.938 53.5785C90.7124 54.9944 90.0227 56.9143 90.0201 58.9171V152.965H164.119V84.4741C164.11 75.696 161.09 67.2803 155.719 61.0732C150.349 54.8662 143.067 51.3746 135.473 51.3645Z" fill="white"/>
<path d="M151.293 144.499H102.846C102.428 144.499 102.026 144.701 101.73 145.062C101.434 145.423 101.267 145.912 101.267 146.423C101.267 146.933 101.434 147.423 101.73 147.783C102.026 148.144 102.428 148.347 102.846 148.347H151.293C151.712 148.347 152.113 148.144 152.41 147.783C152.706 147.423 152.872 146.933 152.872 146.423C152.872 145.912 152.706 145.423 152.41 145.062C152.113 144.701 151.712 144.499 151.293 144.499Z" fill="#132D46"/>
<path d="M151.293 171.438H102.846C102.428 171.438 102.026 171.641 101.73 172.002C101.434 172.363 101.267 172.852 101.267 173.362C101.267 173.873 101.434 174.362 101.73 174.723C102.026 175.084 102.428 175.287 102.846 175.287H151.293C151.712 175.287 152.113 175.084 152.41 174.723C152.706 174.362 152.872 173.873 152.872 173.362C152.872 172.852 152.706 172.363 152.41 172.002C152.113 171.641 151.712 171.438 151.293 171.438Z" fill="#132D46"/>
<path d="M151.293 202.226H102.846C102.428 202.226 102.026 202.429 101.73 202.79C101.434 203.151 101.267 203.64 101.267 204.151C101.267 204.661 101.434 205.15 101.73 205.511C102.026 205.872 102.428 206.075 102.846 206.075H151.293C151.712 206.075 152.113 205.872 152.41 205.511C152.706 205.15 152.872 204.661 152.872 204.151C152.872 203.64 152.706 203.151 152.41 202.79C152.113 202.429 151.712 202.226 151.293 202.226Z" fill="#132D46"/>
<path d="M151.292 137.571H102.848C102.429 137.571 102.027 137.774 101.73 138.135C101.434 138.496 101.267 138.985 101.267 139.496C101.267 140.006 101.434 140.495 101.73 140.856C102.027 141.217 102.429 141.42 102.848 141.42H151.292C151.711 141.42 152.113 141.217 152.409 140.856C152.705 140.495 152.872 140.006 152.872 139.496C152.872 138.985 152.705 138.496 152.409 138.135C152.113 137.774 151.711 137.571 151.292 137.571Z" fill="#132D46"/>
<path d="M151.292 164.511H102.848C102.429 164.511 102.027 164.713 101.73 165.074C101.434 165.435 101.267 165.925 101.267 166.435C101.267 166.945 101.434 167.435 101.73 167.796C102.027 168.157 102.429 168.359 102.848 168.359H151.292C151.711 168.359 152.113 168.157 152.409 167.796C152.705 167.435 152.872 166.945 152.872 166.435C152.872 165.925 152.705 165.435 152.409 165.074C152.113 164.713 151.711 164.511 151.292 164.511Z" fill="#132D46"/>
<path d="M151.292 194.529H102.848C102.429 194.529 102.027 194.732 101.73 195.093C101.434 195.454 101.267 195.943 101.267 196.454C101.267 196.964 101.434 197.453 101.73 197.814C102.027 198.175 102.429 198.378 102.848 198.378H151.292C151.711 198.378 152.113 198.175 152.409 197.814C152.705 197.453 152.872 196.964 152.872 196.454C152.872 195.943 152.705 195.454 152.409 195.093C152.113 194.732 151.711 194.529 151.292 194.529Z" fill="#132D46"/>
<path d="M124.147 129.874H102.867C102.443 129.874 102.036 130.077 101.736 130.438C101.436 130.799 101.267 131.288 101.267 131.799C101.267 132.309 101.436 132.798 101.736 133.159C102.036 133.52 102.443 133.723 102.867 133.723H124.147C124.571 133.723 124.978 133.52 125.278 133.159C125.578 132.798 125.746 132.309 125.746 131.799C125.746 131.288 125.578 130.799 125.278 130.438C124.978 130.077 124.571 129.874 124.147 129.874Z" fill="#132D46"/>
<path d="M124.147 156.814H102.867C102.443 156.814 102.036 157.016 101.736 157.377C101.436 157.738 101.267 158.228 101.267 158.738C101.267 159.248 101.436 159.738 101.736 160.099C102.036 160.459 102.443 160.662 102.867 160.662H124.147C124.571 160.662 124.978 160.459 125.278 160.099C125.578 159.738 125.746 159.248 125.746 158.738C125.746 158.228 125.578 157.738 125.278 157.377C124.978 157.016 124.571 156.814 124.147 156.814Z" fill="#132D46"/>
<path d="M124.147 187.602H102.867C102.443 187.602 102.036 187.805 101.736 188.165C101.436 188.526 101.267 189.016 101.267 189.526C101.267 190.036 101.436 190.526 101.736 190.887C102.036 191.248 102.443 191.45 102.867 191.45H124.147C124.571 191.45 124.978 191.248 125.278 190.887C125.578 190.526 125.746 190.036 125.746 189.526C125.746 189.016 125.578 188.526 125.278 188.165C124.978 187.805 124.571 187.602 124.147 187.602Z" fill="#132D46"/>
<path d="M151.292 115.25H102.848C102.429 115.25 102.027 115.412 101.73 115.701C101.434 115.989 101.267 116.381 101.267 116.789C101.267 117.197 101.434 117.589 101.73 117.878C102.027 118.166 102.429 118.329 102.848 118.329H151.292C151.711 118.329 152.113 118.166 152.409 117.878C152.705 117.589 152.872 117.197 152.872 116.789C152.872 116.381 152.705 115.989 152.409 115.701C152.113 115.412 151.711 115.25 151.292 115.25Z" fill="#132D46"/>
<path d="M151.293 108.323H102.846C102.428 108.323 102.026 108.485 101.73 108.773C101.434 109.062 101.267 109.454 101.267 109.862C101.267 110.27 101.434 110.662 101.73 110.95C102.026 111.239 102.428 111.401 102.846 111.401H151.293C151.712 111.401 152.113 111.239 152.41 110.95C152.706 110.662 152.872 110.27 152.872 109.862C152.872 109.454 152.706 109.062 152.41 108.773C152.113 108.485 151.712 108.323 151.293 108.323Z" fill="#132D46"/>
<path d="M124.145 100.625H102.869C102.444 100.625 102.037 100.828 101.736 101.189C101.436 101.55 101.267 102.039 101.267 102.55C101.267 103.06 101.436 103.55 101.736 103.91C102.037 104.271 102.444 104.474 102.869 104.474H124.145C124.57 104.474 124.977 104.271 125.277 103.91C125.578 103.55 125.746 103.06 125.746 102.55C125.746 102.039 125.578 101.55 125.277 101.189C124.977 100.828 124.57 100.625 124.145 100.625Z" fill="#132D46"/>
<path d="M151.292 85.2314H102.848C102.429 85.2314 102.027 85.4342 101.73 85.795C101.434 86.1559 101.267 86.6454 101.267 87.1557C101.267 87.666 101.434 88.1555 101.73 88.5164C102.027 88.8772 102.429 89.08 102.848 89.08H151.292C151.711 89.08 152.113 88.8772 152.409 88.5164C152.705 88.1555 152.872 87.666 152.872 87.1557C152.872 86.6454 152.705 86.1559 152.409 85.795C152.113 85.4342 151.711 85.2314 151.292 85.2314Z" fill="#130160"/>
<path d="M151.292 78.304H102.848C102.429 78.304 102.027 78.4661 101.73 78.7548C101.434 79.0435 101.267 79.4351 101.267 79.8434C101.267 80.2516 101.434 80.6432 101.73 80.9319C102.027 81.2206 102.429 81.3828 102.848 81.3828H151.292C151.711 81.3828 152.113 81.2206 152.409 80.9319C152.705 80.6432 152.872 80.2516 152.872 79.8434C152.872 79.4351 152.705 79.0435 152.409 78.7548C152.113 78.4661 151.711 78.304 151.292 78.304Z" fill="#130160"/>
<path d="M124.145 70.6069H102.869C102.444 70.6069 102.037 70.8097 101.736 71.1705C101.436 71.5314 101.267 72.0208 101.267 72.5312C101.267 73.0415 101.436 73.531 101.736 73.8918C102.037 74.2527 102.444 74.4554 102.869 74.4554H124.145C124.57 74.4554 124.977 74.2527 125.277 73.8918C125.578 73.531 125.746 73.0415 125.746 72.5312C125.746 72.0208 125.578 71.5314 125.277 71.1705C124.977 70.8097 124.57 70.6069 124.145 70.6069Z" fill="#130160"/>
<path d="M287.792 107.593L273.342 86.1272L258.951 97.3962L272.543 107.937L275.336 141.614C274.475 142.52 273.897 143.655 273.672 144.883C273.448 146.11 273.586 147.376 274.071 148.526C274.556 149.676 275.367 150.66 276.403 151.359C277.44 152.058 278.659 152.442 279.911 152.463C281.163 152.484 282.394 152.141 283.453 151.477C284.513 150.813 285.356 149.856 285.88 148.723C286.403 147.59 286.584 146.33 286.401 145.096C286.218 143.862 285.679 142.707 284.849 141.774L287.792 107.593Z" fill="#FFB6B6"/>
<path d="M253.389 66.3415C261.033 64.9166 276.19 88.4584 276.19 88.4584C274.389 88.4967 288.285 102.445 286.805 103.119C282.6 105.035 272.574 106.531 271.02 109.117C270.13 110.596 261.268 100.53 261.268 100.53C261.268 100.53 255.73 95.2796 248.739 88.384C246.726 86.4711 245.231 84.0818 244.394 81.4386C243.558 78.7955 243.406 75.9843 243.953 73.2669C243.953 73.2669 245.744 67.7663 253.389 66.3415Z" fill="#130160"/>
<path d="M260.637 256.815L261.174 244.789C266.77 241.809 273.012 240.234 279.357 240.203C270.624 247.317 271.715 261.03 265.795 270.596C263.925 273.566 261.409 276.078 258.432 277.947C255.455 279.816 252.095 280.994 248.599 281.393L241.291 285.851C240.288 280.281 240.51 274.56 241.939 269.084C243.369 263.607 245.973 258.504 249.573 254.127C251.617 251.691 253.96 249.522 256.548 247.669C258.299 252.268 260.637 256.815 260.637 256.815Z" fill="#E6E1FF"/>
<path d="M241.807 279.662L235.189 279.661L232.041 254.23L241.808 254.231L241.807 279.662Z" fill="#FFB6B6"/>
<path d="M243.495 286.053L222.157 286.052V285.783C222.157 283.588 223.032 281.484 224.59 279.932C226.147 278.38 228.26 277.508 230.462 277.508H230.463L234.36 274.562L241.632 277.509L243.495 277.509L243.495 286.053Z" fill="#2F2E41"/>
<path d="M211.063 279.662L204.446 279.661L201.298 254.23L211.065 254.231L211.063 279.662Z" fill="#FFB6B6"/>
<path d="M212.751 286.053L191.414 286.052V285.783C191.414 283.588 192.289 281.484 193.846 279.932C195.404 278.38 197.516 277.508 199.719 277.508H199.719L203.617 274.562L210.889 277.509L212.751 277.509L212.751 286.053Z" fill="#2F2E41"/>
<path d="M208.199 140.628L251.242 141.7C259.416 146.124 259.541 155.699 256.862 167.067C256.862 167.067 257.766 173.824 255.958 175.625C254.149 177.427 253.245 177.427 254.149 180.58C255.054 183.734 250.276 188.884 250.857 189.462C251.437 190.04 252.793 193.193 252.793 193.193L248.272 218.869C248.272 218.869 245.107 263.465 244.203 264.366C243.299 265.266 242.395 264.366 243.299 266.618C244.203 268.87 245.107 267.969 244.203 268.87C243.402 269.731 242.648 270.633 241.943 271.573H231.012C231.012 271.573 230.188 267.068 230.188 266.618C230.188 266.167 229.283 263.465 229.283 263.014C229.283 262.564 230.083 261.767 230.083 261.767C230.359 260.852 230.545 259.912 230.64 258.96C230.64 258.059 233.352 223.374 233.352 223.374L227.927 178.328L214.816 222.473C214.816 222.473 214.816 261.212 213.912 262.113C213.008 263.014 213.008 262.564 213.46 264.366C213.912 266.167 215.72 265.717 214.364 267.068C213.008 268.42 212.555 266.167 213.008 268.42L213.46 270.672L199.896 270.865C199.896 270.865 198.088 267.068 198.992 265.717C199.896 264.366 199.842 264.734 198.739 262.523C197.636 260.311 197.184 259.861 197.636 259.411C198.088 258.96 198.088 256.564 198.088 256.564L200.348 213.464C200.348 213.464 200.801 167.968 200.801 166.616C200.835 165.921 200.706 165.227 200.425 164.59V162.755L202.157 156.256L208.199 140.628Z" fill="#69687F"/>
<path d="M234.055 51.454C241.441 51.454 247.429 45.4883 247.429 38.1292C247.429 30.7701 241.441 24.8044 234.055 24.8044C226.669 24.8044 220.682 30.7701 220.682 38.1292C220.682 45.4883 226.669 51.454 234.055 51.454Z" fill="#FFB6B6"/>
<path d="M227.369 60.2607C224.488 61.9673 222.764 65.103 221.775 68.2938C219.943 74.2012 218.84 80.3089 218.491 86.482L217.446 104.963L204.504 144.315C215.721 153.771 257.882 146.464 257.882 146.464C257.882 146.464 259.176 146.034 257.882 144.745C256.588 143.455 255.328 144.598 256.622 143.308C257.916 142.019 257.024 143.455 256.593 142.166C256.161 140.876 256.593 141.736 257.024 141.306C257.456 140.876 253.685 137.008 253.685 137.008L257.136 114.419L261.45 68.8573C256.273 62.4098 245.862 58.609 245.862 58.609L243.171 53.7844L229.721 54.8566L227.369 60.2607Z" fill="#130160"/>
<path d="M225.534 30.3093C226.052 30.3133 226.567 30.3806 227.068 30.5098C228.055 30.7463 229.058 30.9139 230.07 31.0113C233.166 31.3015 236.075 32.617 238.332 34.7478C240.59 36.8785 242.066 39.7016 242.524 42.7661C243.301 42.091 245.069 40.8492 246.519 42.0033C246.541 42.0216 246.554 42.0311 246.605 42.007C247.567 41.552 249.276 35.9521 249.328 31.0215C249.355 28.4045 248.942 25.0627 246.817 24.0045L246.705 23.9487L246.676 23.8275C246.534 23.2388 244.948 22.234 242.192 21.4518C237.184 20.0305 229.719 17.2618 225.515 21.3365C225.196 22.7102 224.161 25.6498 223.116 25.983C221.958 26.3519 220.958 26.6701 220.8 28.0852C220.669 30.0989 220.678 32.1193 220.829 34.1316C221.221 32.9002 221.992 31.8225 223.031 31.05C223.77 30.5543 224.644 30.2958 225.534 30.3093Z" fill="#2F2E41"/>
<path d="M200.642 103.934L222.488 89.9946L211.485 75.4214L200.62 88.7374L166.768 90.806C165.877 89.9291 164.75 89.3292 163.523 89.0795C162.297 88.8299 161.023 88.9412 159.859 89.4C158.695 89.8587 157.69 90.6451 156.966 91.6632C156.243 92.6812 155.833 93.887 155.785 95.1336C155.737 96.3801 156.055 97.6134 156.699 98.6833C157.343 99.7531 158.285 100.613 159.411 101.159C160.537 101.704 161.798 101.911 163.04 101.755C164.282 101.599 165.452 101.086 166.406 100.279L200.642 103.934Z" fill="#FFB6B6"/>
<path d="M242.764 70.5381C244.032 78.1833 220.088 92.7825 220.088 92.7825C220.088 90.988 205.797 104.535 205.152 103.047C203.319 98.817 202.03 88.7986 199.468 87.1951C198.003 86.2781 208.291 77.6634 208.291 77.6634C208.291 77.6634 213.677 72.2578 220.744 65.4394C222.706 63.4748 225.135 62.0368 227.805 61.2592C230.475 60.4816 233.299 60.3897 236.015 60.992C236.015 60.992 241.496 62.8929 242.764 70.5381Z" fill="#130160"/>
<path d="M291.483 286.159C291.484 286.243 291.467 286.326 291.435 286.403C291.403 286.481 291.356 286.551 291.296 286.611C291.237 286.67 291.166 286.717 291.088 286.749C291.011 286.781 290.927 286.797 290.843 286.797H140.037C139.868 286.797 139.705 286.73 139.585 286.61C139.465 286.49 139.397 286.328 139.397 286.159C139.397 285.99 139.465 285.827 139.585 285.708C139.705 285.588 139.868 285.521 140.037 285.521H290.843C290.927 285.521 291.011 285.537 291.088 285.569C291.166 285.601 291.237 285.648 291.296 285.707C291.356 285.767 291.403 285.837 291.435 285.915C291.467 285.992 291.484 286.075 291.483 286.159Z" fill="#130160"/>
<circle cx="68.2056" cy="25.2056" r="25.2056" fill="#FF9228"/>
<path d="M76.0081 31.8289L79.2702 35.0893C79.4223 35.2468 79.5065 35.4578 79.5046 35.6767C79.5027 35.8957 79.4149 36.1052 79.26 36.26C79.1052 36.4149 78.8957 36.5027 78.6767 36.5046C78.4578 36.5065 78.2468 36.4223 78.0893 36.2702L74.8272 33.0081C72.6955 34.8345 69.9393 35.7642 67.1369 35.6022C64.3345 35.4402 61.7037 34.1991 59.7967 32.1393C57.8896 30.0794 56.8545 27.361 56.9085 24.5545C56.9625 21.7479 58.1015 19.0713 60.0864 17.0864C62.0713 15.1015 64.7479 13.9625 67.5545 13.9085C70.361 13.8545 73.0794 14.8896 75.1393 16.7967C77.1991 18.7037 78.4402 21.3345 78.6022 24.1369C78.7642 26.9393 77.8345 29.6955 76.0081 31.8272V31.8289ZM67.7635 33.9502C70.2 33.9502 72.5366 32.9823 74.2595 31.2595C75.9823 29.5366 76.9502 27.2 76.9502 24.7635C76.9502 22.3271 75.9823 19.9904 74.2595 18.2676C72.5366 16.5448 70.2 15.5769 67.7635 15.5769C65.3271 15.5769 62.9904 16.5448 61.2676 18.2676C59.5448 19.9904 58.5769 22.3271 58.5769 24.7635C58.5769 27.2 59.5448 29.5366 61.2676 31.2595C62.9904 32.9823 65.3271 33.9502 67.7635 33.9502Z" fill="white"/>
</svg>
